
<svg xmlns="http://www.w3.org/2000/svg" width="1024" height="1024" id="chatbot">

<path
    d="M317.785 196.621C307.324 191.452 309.301 180.633 309.293 170.828L309.286 130.532C309.289 118.853 309.409 107.426 324.193 106.128 330.728 105.463 337.554 106.115 344.124 106.121L413.35 106.123C428.797 106.124 441.195 105.194 441.428 124.804 441.589 138.293 441.453 151.8 441.449 165.29 441.443 190.749 443.284 198.559 416.31 198.476L401.112 198.455 377.058 198.44C373.055 198.438 365.638 197.875 362.143 198.874 353.134 201.45 328.673 223.971 322.452 224.242 316.376 224.507 317.752 216.41 317.758 212.631L317.785 196.621ZM324.193 115.42C320.576 116.505 318.762 118.355 318.593 122.086 318.272 129.16 317.748 180.959 318.993 184.958 320.288 189.119 325.733 187.628 327.046 190.999 328.257 194.105 327.471 205.833 327.545 209.81 334.367 206.013 341.8 200.582 348.273 196.106 361.804 186.748 361.014 189.006 376.946 189.017L407.106 189.035C425.352 189.087 431.934 193.93 431.884 174.506L431.88 135.818C431.89 131.635 432.045 127.391 431.872 123.213 431.454 113.107 422.033 115.392 414.816 115.404L324.193 115.42ZM151.083 190.989C145.822 190.59 140.22 190.98 134.93 190.982L100.265 191.002C75.7231 191.021 70.9789 191.74 71.0265 167.113L71.0511 150.937C71.0168 138.599 67.0433 120.069 82.847 116.731 88.4279 116.504 94.1123 116.72 99.7034 116.723L157.686 116.718C170.907 116.699 183.053 114.941 183.646 131.57 184.136 145.327 183.709 159.218 183.722 172.991L183.744 197.414C183.747 203.661 186.154 222.24 174.181 213.66 171.544 210.236 168.084 207.319 164.967 204.335L151.083 190.989ZM84.0618 126.239C82.9135 126.507 81.418 126.869 80.8461 128.037 80.2704 129.213 80.366 173.742 80.5327 178.649 81.6177 179.845 82.6778 180.786 84.0618 181.645L134.738 181.64C160.603 181.633 152.835 179.161 172.557 198.455L174.181 199.963 174.185 154.916C174.184 147.043 174.548 139.015 174.058 131.168 173.601 123.844 166.703 126.223 160.15 126.225L84.0618 126.239Z"
    transform="scale(2)"
    fill="currentColor"
    stroke="currentColor"
    stroke-width="5"
/>

<path
    d="M407.106 147.009C393.799 147.148 380.477 147.014 367.168 147.006 362.419 147.003 343.585 149.209 341.798 144.188 340.639 140.932 341.946 138.77 345.098 137.732L383.731 137.741C388.205 137.742 405.296 136.739 408.516 138.248 413.251 140.469 411.645 146.024 407.106 147.009ZM106.001 158.734C102.347 158.762 96.4398 159.554 93.2551 157.605 89.7199 155.441 90.866 149.65 96.622 148.995 100.256 149.038 103.891 149.034 107.526 148.995 111.579 152.226 111.517 157.752 106.001 158.734ZM133.045 158.734C130.185 158.848 123.168 159.322 120.766 158.198 116.237 156.078 118.159 150.134 122.321 148.995 125.201 148.863 131.246 148.349 133.805 149.401 138.93 151.509 137.749 157.256 133.045 158.734ZM160.018 158.734C157.074 158.845 149.886 159.36 147.391 157.957 142.825 155.389 145.213 149.921 149.531 148.995 152.704 148.957 158.833 148.306 161.629 149.609 166.559 151.905 164.307 157.491 160.018 158.734ZM405.063 166.082 366.048 166.09C359.412 166.09 352.419 166.527 345.817 165.943 340.044 165.433 338.581 156.809 347.797 156.656L387.495 156.647C393.081 156.646 401.464 156.174 406.818 156.806 412.265 157.448 414.188 165.523 405.063 166.082ZM257.594 224.589C240.87 218.592 242.581 195.742 260.592 193.102 278.413 191.114 285.72 216.922 267.026 224.589 267.26 231.935 267.031 239.355 267.026 246.708L306.539 246.702C324.976 246.688 340.529 244.608 355.226 257.832 365.049 266.671 368.007 276.667 368.627 289.493 389.688 289.554 390.239 299.013 390.266 317.039 390.292 334.713 390.876 347.872 368.627 346.844 366.268 366.224 351.915 382.995 331.732 384.612 327.881 384.92 323.789 384.517 319.907 384.51 319.97 408.195 322.674 405.292 301.417 405.301L264.644 405.311 226.895 405.309C202.519 405.332 205.488 409.313 205.587 384.51 202.72 384.234 199.669 384.475 196.776 384.423 174.913 384.026 157.243 369.235 155.665 346.844 135.527 346.9 134.482 340.329 134.458 322.161 134.433 303.823 130.497 288.978 155.665 289.493 155.834 270.449 167.763 252.946 186.534 248.146 195.8 245.776 208.384 246.711 218.113 246.71L257.594 246.708 257.594 224.589ZM260.592 202.523C252.401 205.12 254.838 217.014 263.616 215.459 271.667 212.47 269.431 201.578 260.592 202.523ZM198.109 256.297C172.432 257.751 165.204 274.368 165.22 297.467L165.218 334.909C165.206 352.867 168.273 370.892 190.227 374.621 195.753 375.559 201.597 375.112 207.194 375.099L326.008 375.092C351.858 373.142 359.1 359.504 359.014 335.37L359.014 300.246C359.006 280.684 356.579 260.775 332.097 256.834 326.504 255.934 320.541 256.286 314.887 256.286L198.109 256.297ZM149.531 299.221C145.57 299.699 144.47 300.753 144.064 304.706 143.304 312.123 143.584 326.558 143.946 334.237 146.156 336.645 147.954 337.283 151.083 337.294L155.665 337.294 155.665 299.221C153.624 299.076 151.565 298.905 149.531 299.221ZM368.627 299.221 368.627 337.294C372.045 337.194 375.709 337.446 378.621 335.354 382.396 330.886 381.137 311.672 380.665 305.746 380.103 298.682 374.16 299.09 368.627 299.221ZM214.773 384.51 214.773 396 310.092 396 310.092 384.51 214.773 384.51Z"
    transform="scale(2)"
    fill="currentColor"
    stroke="currentColor"
    stroke-width="5"
/>

<path
    d="M217.762 322.144C186.939 323.785 185.269 277.885 214.773 277.333 242.246 274.198 248.065 318.833 217.762 322.144ZM214.773 286.787C196.501 290.183 200.522 314.014 217.762 312.438 234.515 309.29 231.002 284.959 214.773 286.787ZM312.281 322.144C280.527 323.294 277.02 281.993 305.696 277.333 323.121 275.831 336.145 290.854 329.832 307.344 326.358 316.419 320.393 318.559 312.281 322.144ZM307.728 286.787C292.177 288.292 290.436 310.442 310.092 312.438 328.183 307.303 322.886 284.592 307.728 286.787ZM241.133 345.302C237.904 343.426 234.93 340.766 237.593 336.918 241.989 330.565 257.299 348.567 277.735 337.755 280.41 336.34 282.697 334.774 285.722 334.237 289.256 333.869 291.616 337.739 290.028 340.893 288.245 344.436 279.428 347.779 275.771 348.967 263.642 352.905 252.274 351.028 241.133 345.302Z"
    transform="scale(2)"
    fill="currentColor"
    stroke="currentColor"
    stroke-width="5"
/>
</svg>